<svg id="visual" viewBox="0 0 9900 1000" width="9900" height="1000" xmlns="http://www.w3.org/2000/svg" xmlns:xlink="http://www.w3.org/1999/xlink" version="1.1"><rect x="0" y="0" width="9900" height="1000" fill="#FFFFFF"></rect><path d="M0 815L71.7 829.7C143.3 844.3 286.7 873.7 430.2 874.2C573.7 874.7 717.3 846.3 860.8 830.2C1004.3 814 1147.7 810 1291.2 823.2C1434.7 836.3 1578.3 866.7 1721.8 883.5C1865.3 900.3 2008.7 903.7 2152.2 912.3C2295.7 921 2439.3 935 2582.8 923.3C2726.3 911.7 2869.7 874.3 3013 854C3156.3 833.7 3299.7 830.3 3443.2 840.2C3586.7 850 3730.3 873 3873.8 886.3C4017.3 899.7 4160.7 903.3 4304.2 894C4447.7 884.7 4591.3 862.3 4734.8 870.5C4878.3 878.7 5021.7 917.3 5165.2 911.5C5308.7 905.7 5452.3 855.3 5595.8 835.5C5739.3 815.7 5882.7 826.3 6026.2 857.8C6169.7 889.3 6313.3 941.7 6456.8 939.7C6600.3 937.7 6743.7 881.3 6887 873.3C7030.3 865.3 7173.7 905.7 7317.2 915.7C7460.7 925.7 7604.3 905.3 7747.8 892.3C7891.3 879.3 8034.7 873.7 8178.2 884.2C8321.7 894.7 8465.3 921.3 8608.8 933.2C8752.3 945 8895.7 942 9039.2 921.5C9182.7 901 9326.3 863 9469.8 864.2C9613.3 865.3 9756.7 905.7 9828.3 925.8L9900 946L9900 1001L9828.3 1001C9756.7 1001 9613.3 1001 9469.8 1001C9326.3 1001 9182.7 1001 9039.2 1001C8895.7 1001 8752.3 1001 8608.8 1001C8465.3 1001 8321.7 1001 8178.2 1001C8034.7 1001 7891.3 1001 7747.8 1001C7604.3 1001 7460.7 1001 7317.2 1001C7173.7 1001 7030.3 1001 6887 1001C6743.7 1001 6600.3 1001 6456.8 1001C6313.3 1001 6169.7 1001 6026.2 1001C5882.7 1001 5739.3 1001 5595.8 1001C5452.3 1001 5308.7 1001 5165.2 1001C5021.7 1001 4878.3 1001 4734.8 1001C4591.3 1001 4447.7 1001 4304.2 1001C4160.7 1001 4017.3 1001 3873.8 1001C3730.3 1001 3586.7 1001 3443.2 1001C3299.7 1001 3156.3 1001 3013 1001C2869.7 1001 2726.3 1001 2582.8 1001C2439.3 1001 2295.7 1001 2152.2 1001C2008.7 1001 1865.3 1001 1721.8 1001C1578.3 1001 1434.7 1001 1291.2 1001C1147.7 1001 1004.3 1001 860.8 1001C717.3 1001 573.7 1001 430.2 1001C286.7 1001 143.3 1001 71.7 1001L0 1001Z" fill="#b8b8b8"></path><path d="M0 852L71.7 872.3C143.3 892.7 286.7 933.3 430.2 936.3C573.7 939.3 717.3 904.7 860.8 888.8C1004.3 873 1147.7 876 1291.2 892.2C1434.7 908.3 1578.3 937.7 1721.8 943C1865.3 948.3 2008.7 929.7 2152.2 932.2C2295.7 934.7 2439.3 958.3 2582.8 949.3C2726.3 940.3 2869.7 898.7 3013 888.8C3156.3 879 3299.7 901 3443.2 909.8C3586.7 918.7 3730.3 914.3 3873.8 921.7C4017.3 929 4160.7 948 4304.2 945.3C4447.7 942.7 4591.3 918.3 4734.8 915.7C4878.3 913 5021.7 932 5165.2 945.5C5308.7 959 5452.3 967 5595.8 954.7C5739.3 942.3 5882.7 909.7 6026.2 909.5C6169.7 909.3 6313.3 941.7 6456.8 951.2C6600.3 960.7 6743.7 947.3 6887 943C7030.3 938.7 7173.7 943.3 7317.2 944.2C7460.7 945 7604.3 942 7747.8 946.5C7891.3 951 8034.7 963 8178.2 949C8321.7 935 8465.3 895 8608.8 874.8C8752.3 854.7 8895.7 854.3 9039.2 866.3C9182.7 878.3 9326.3 902.7 9469.8 917.8C9613.3 933 9756.7 939 9828.3 942L9900 945L9900 1001L9828.3 1001C9756.7 1001 9613.3 1001 9469.8 1001C9326.3 1001 9182.7 1001 9039.2 1001C8895.7 1001 8752.3 1001 8608.8 1001C8465.3 1001 8321.7 1001 8178.2 1001C8034.7 1001 7891.3 1001 7747.8 1001C7604.3 1001 7460.7 1001 7317.2 1001C7173.7 1001 7030.3 1001 6887 1001C6743.7 1001 6600.3 1001 6456.8 1001C6313.3 1001 6169.7 1001 6026.2 1001C5882.7 1001 5739.3 1001 5595.8 1001C5452.3 1001 5308.7 1001 5165.2 1001C5021.7 1001 4878.3 1001 4734.8 1001C4591.3 1001 4447.7 1001 4304.2 1001C4160.7 1001 4017.3 1001 3873.8 1001C3730.3 1001 3586.7 1001 3443.2 1001C3299.7 1001 3156.3 1001 3013 1001C2869.7 1001 2726.3 1001 2582.8 1001C2439.3 1001 2295.7 1001 2152.2 1001C2008.7 1001 1865.3 1001 1721.8 1001C1578.3 1001 1434.7 1001 1291.2 1001C1147.7 1001 1004.3 1001 860.8 1001C717.3 1001 573.7 1001 430.2 1001C286.7 1001 143.3 1001 71.7 1001L0 1001Z" fill="#585858"></path><path d="M0 922L71.7 930.8C143.3 939.7 286.7 957.3 430.2 958.3C573.7 959.3 717.3 943.7 860.8 932C1004.3 920.3 1147.7 912.7 1291.2 912.7C1434.7 912.7 1578.3 920.3 1721.8 920.2C1865.3 920 2008.7 912 2152.2 914.2C2295.7 916.3 2439.3 928.7 2582.8 940.8C2726.3 953 2869.7 965 3013 973C3156.3 981 3299.7 985 3443.2 972.7C3586.7 960.3 3730.3 931.7 3873.8 918.2C4017.3 904.7 4160.7 906.3 4304.2 909.2C4447.7 912 4591.3 916 4734.8 924.5C4878.3 933 5021.7 946 5165.2 943.7C5308.7 941.3 5452.3 923.7 5595.8 922.3C5739.3 921 5882.7 936 6026.2 943.8C6169.7 951.7 6313.3 952.3 6456.8 943.8C6600.3 935.3 6743.7 917.7 6887 914C7030.3 910.3 7173.7 920.7 7317.2 930C7460.7 939.3 7604.3 947.7 7747.8 958.2C7891.3 968.7 8034.7 981.3 8178.2 985.3C8321.7 989.3 8465.3 984.7 8608.8 980C8752.3 975.3 8895.7 970.7 9039.2 966.8C9182.7 963 9326.3 960 9469.8 962.5C9613.3 965 9756.7 973 9828.3 977L9900 981L9900 1001L9828.3 1001C9756.7 1001 9613.3 1001 9469.8 1001C9326.3 1001 9182.7 1001 9039.2 1001C8895.7 1001 8752.3 1001 8608.8 1001C8465.3 1001 8321.7 1001 8178.2 1001C8034.7 1001 7891.3 1001 7747.8 1001C7604.3 1001 7460.7 1001 7317.2 1001C7173.7 1001 7030.3 1001 6887 1001C6743.7 1001 6600.3 1001 6456.8 1001C6313.3 1001 6169.7 1001 6026.2 1001C5882.7 1001 5739.3 1001 5595.8 1001C5452.3 1001 5308.7 1001 5165.2 1001C5021.7 1001 4878.3 1001 4734.8 1001C4591.3 1001 4447.7 1001 4304.2 1001C4160.7 1001 4017.3 1001 3873.8 1001C3730.3 1001 3586.7 1001 3443.2 1001C3299.7 1001 3156.3 1001 3013 1001C2869.7 1001 2726.3 1001 2582.8 1001C2439.3 1001 2295.7 1001 2152.2 1001C2008.7 1001 1865.3 1001 1721.8 1001C1578.3 1001 1434.7 1001 1291.2 1001C1147.7 1001 1004.3 1001 860.8 1001C717.3 1001 573.7 1001 430.2 1001C286.7 1001 143.3 1001 71.7 1001L0 1001Z" fill="#000000"></path></svg>