<svg id="visual" viewBox="0 0 3840 2160" width="3840" height="2160" xmlns="http://www.w3.org/2000/svg" xmlns:xlink="http://www.w3.org/1999/xlink" version="1.1"><rect x="0" y="0" width="3840" height="2160" fill="#ffffff"></rect><path d="M0 1739L30.5 1722C61 1705 122 1671 183 1665.8C244 1660.7 305 1684.3 366 1707.5C427 1730.7 488 1753.3 548.8 1758C609.7 1762.7 670.3 1749.3 731.2 1744.5C792 1739.7 853 1743.3 914 1740.2C975 1737 1036 1727 1097 1734.5C1158 1742 1219 1767 1280 1752.7C1341 1738.3 1402 1684.7 1463 1664.2C1524 1643.7 1585 1656.3 1646 1666C1707 1675.7 1768 1682.3 1828.8 1691.2C1889.7 1700 1950.3 1711 2011.2 1725C2072 1739 2133 1756 2194 1754.2C2255 1752.3 2316 1731.7 2377 1710.8C2438 1690 2499 1669 2560 1680.8C2621 1692.7 2682 1737.3 2743 1758.3C2804 1779.3 2865 1776.7 2926 1772.3C2987 1768 3048 1762 3108.8 1770.7C3169.7 1779.3 3230.3 1802.7 3291.2 1813.7C3352 1824.7 3413 1823.3 3474 1806.3C3535 1789.3 3596 1756.7 3657 1732.7C3718 1708.7 3779 1693.3 3809.5 1685.7L3840 1678L3840 2161L3809.5 2161C3779 2161 3718 2161 3657 2161C3596 2161 3535 2161 3474 2161C3413 2161 3352 2161 3291.2 2161C3230.3 2161 3169.7 2161 3108.8 2161C3048 2161 2987 2161 2926 2161C2865 2161 2804 2161 2743 2161C2682 2161 2621 2161 2560 2161C2499 2161 2438 2161 2377 2161C2316 2161 2255 2161 2194 2161C2133 2161 2072 2161 2011.2 2161C1950.3 2161 1889.7 2161 1828.8 2161C1768 2161 1707 2161 1646 2161C1585 2161 1524 2161 1463 2161C1402 2161 1341 2161 1280 2161C1219 2161 1158 2161 1097 2161C1036 2161 975 2161 914 2161C853 2161 792 2161 731.2 2161C670.3 2161 609.7 2161 548.8 2161C488 2161 427 2161 366 2161C305 2161 244 2161 183 2161C122 2161 61 2161 30.5 2161L0 2161Z" fill="#484545"></path><path d="M0 1867L30.5 1871C61 1875 122 1883 183 1867.2C244 1851.3 305 1811.7 366 1816.7C427 1821.7 488 1871.3 548.8 1899C609.7 1926.7 670.3 1932.3 731.2 1936C792 1939.7 853 1941.3 914 1917.8C975 1894.3 1036 1845.7 1097 1836.8C1158 1828 1219 1859 1280 1873.2C1341 1887.3 1402 1884.7 1463 1871C1524 1857.3 1585 1832.7 1646 1827.2C1707 1821.7 1768 1835.3 1828.8 1843.7C1889.7 1852 1950.3 1855 2011.2 1847.7C2072 1840.3 2133 1822.7 2194 1816.7C2255 1810.7 2316 1816.3 2377 1821.3C2438 1826.3 2499 1830.7 2560 1828.3C2621 1826 2682 1817 2743 1828.3C2804 1839.7 2865 1871.3 2926 1882.8C2987 1894.3 3048 1885.7 3108.8 1863.5C3169.7 1841.3 3230.3 1805.7 3291.2 1798.2C3352 1790.7 3413 1811.3 3474 1840.2C3535 1869 3596 1906 3657 1925.7C3718 1945.3 3779 1947.7 3809.5 1948.8L3840 1950L3840 2161L3809.5 2161C3779 2161 3718 2161 3657 2161C3596 2161 3535 2161 3474 2161C3413 2161 3352 2161 3291.2 2161C3230.3 2161 3169.7 2161 3108.8 2161C3048 2161 2987 2161 2926 2161C2865 2161 2804 2161 2743 2161C2682 2161 2621 2161 2560 2161C2499 2161 2438 2161 2377 2161C2316 2161 2255 2161 2194 2161C2133 2161 2072 2161 2011.2 2161C1950.3 2161 1889.7 2161 1828.8 2161C1768 2161 1707 2161 1646 2161C1585 2161 1524 2161 1463 2161C1402 2161 1341 2161 1280 2161C1219 2161 1158 2161 1097 2161C1036 2161 975 2161 914 2161C853 2161 792 2161 731.2 2161C670.3 2161 609.7 2161 548.8 2161C488 2161 427 2161 366 2161C305 2161 244 2161 183 2161C122 2161 61 2161 30.5 2161L0 2161Z" fill="#272525"></path><path d="M0 2031L30.5 2028.2C61 2025.3 122 2019.7 183 2008.3C244 1997 305 1980 366 1965.8C427 1951.7 488 1940.3 548.8 1943.5C609.7 1946.7 670.3 1964.3 731.2 1974C792 1983.7 853 1985.3 914 1997.8C975 2010.3 1036 2033.7 1097 2046.5C1158 2059.3 1219 2061.7 1280 2053.8C1341 2046 1402 2028 1463 2030.2C1524 2032.3 1585 2054.7 1646 2053.7C1707 2052.7 1768 2028.3 1828.8 2008.8C1889.7 1989.3 1950.3 1974.7 2011.2 1961.8C2072 1949 2133 1938 2194 1930.8C2255 1923.7 2316 1920.3 2377 1944.5C2438 1968.7 2499 2020.3 2560 2024.3C2621 2028.3 2682 1984.7 2743 1973.5C2804 1962.3 2865 1983.7 2926 1987.7C2987 1991.7 3048 1978.3 3108.8 1974C3169.7 1969.7 3230.3 1974.3 3291.2 1974C3352 1973.7 3413 1968.3 3474 1963C3535 1957.7 3596 1952.3 3657 1957.7C3718 1963 3779 1979 3809.5 1987L3840 1995L3840 2161L3809.5 2161C3779 2161 3718 2161 3657 2161C3596 2161 3535 2161 3474 2161C3413 2161 3352 2161 3291.2 2161C3230.3 2161 3169.7 2161 3108.8 2161C3048 2161 2987 2161 2926 2161C2865 2161 2804 2161 2743 2161C2682 2161 2621 2161 2560 2161C2499 2161 2438 2161 2377 2161C2316 2161 2255 2161 2194 2161C2133 2161 2072 2161 2011.2 2161C1950.3 2161 1889.7 2161 1828.8 2161C1768 2161 1707 2161 1646 2161C1585 2161 1524 2161 1463 2161C1402 2161 1341 2161 1280 2161C1219 2161 1158 2161 1097 2161C1036 2161 975 2161 914 2161C853 2161 792 2161 731.2 2161C670.3 2161 609.7 2161 548.8 2161C488 2161 427 2161 366 2161C305 2161 244 2161 183 2161C122 2161 61 2161 30.5 2161L0 2161Z" fill="#000000"></path></svg>